<?xml version="1.0" encoding="utf-8"?>
<!-- Generator: Adobe Illustrator 22.0.1, SVG Export Plug-In . SVG Version: 6.00 Build 0)  -->
<svg version="1.1" id="Layer_1" xmlns="http://www.w3.org/2000/svg" xmlns:xlink="http://www.w3.org/1999/xlink" x="0px" y="0px"
	 viewBox="0 0 2991.9 519" style="enable-background:new 0 0 2991.9 519;" xml:space="preserve">
<style type="text/css">
	.st0{fill-rule:evenodd;clip-rule:evenodd;fill:#CD2026;}
	.st1{fill-rule:evenodd;clip-rule:evenodd;fill:#FFFFFF;}
	.st2{fill:#444040;}
	.st3{fill:none;stroke:#8B8B8C;stroke-miterlimit:10;}
</style>
<g>
	<path class="st0" d="M194.9,84.8c94.7,0,171.5,76.8,171.5,171.5c0,94.7-76.8,171.5-171.5,171.5S23.5,351,23.5,256.3
		C23.5,161.6,100.2,84.8,194.9,84.8L194.9,84.8z"/>
	<path class="st1" d="M283.4,190c-11-11.1-25.8-17.1-41.4-17.1c-15.6,0-30.3,6.1-41.4,17.1l-4.6,4.6l-4.7-4.6
		c-11.1-11.1-25.8-17.1-41.4-17.1c-15.6,0-30.3,6.1-41.4,17.1c-22.8,22.8-22.8,59.9,0,82.8l83.1,83.1c1.2,1.2,2.8,1.8,4.4,1.8
		c1.6,0,3.2-0.6,4.4-1.8l83.1-83.1c11.1-11.1,17.1-25.8,17.1-41.4C300.6,215.8,294.5,201.1,283.4,190L283.4,190L283.4,190z
		 M274.7,264.1L196,342.8l-78.7-78.7c-18-18-18-47.3,0-65.3c8.7-8.7,20.3-13.5,32.7-13.5c12.3,0,23.9,4.8,32.7,13.5l9,9
		c2.4,2.4,6.3,2.4,8.7,0l9-9c8.7-8.7,20.3-13.5,32.7-13.5c12.3,0,23.9,4.8,32.7,13.5C292.7,216.8,292.7,246.1,274.7,264.1
		L274.7,264.1L274.7,264.1z"/>
	<path class="st1" d="M99.1,250.8H76.5c-3.4,0-6.2,2.8-6.2,6.2c0,3.4,2.8,6.2,6.2,6.2l22.6,0c3.4,0,6.2-2.8,6.2-6.2
		C105.3,253.6,102.5,250.8,99.1,250.8L99.1,250.8L99.1,250.8z"/>
	<path class="st1" d="M292.3,251h-59l-9.2-20.2c-0.7-1.5-2.2-2.5-3.9-2.4c-1.7,0.1-3.1,1.1-3.7,2.7L197.7,284l-22.8-63.2
		c-0.6-1.6-2-2.6-3.7-2.7c-1.8-0.1-3.2,0.9-3.9,2.4L152,253h-50.8c-2.3,0-4.1,1.8-4.1,4.1c0,2.3,2.7,3.9,5,3.9l53.4,0
		c1.6,0,2.2-0.7,2.9-2.2l12.2-26l23.3,64.7c0.6,1.6,2.1,2.7,3.9,2.7h0c1.7,0,3.3-1.1,3.9-2.7l19.2-54.1l6.1,13.3
		c0.7,1.5,3,2.2,4.6,2.2l61.7,0c2.3,0,3.2-1.6,3.2-3.9C296.4,252.8,294.6,251,292.3,251L292.3,251L292.3,251z"/>
	<path class="st1" d="M312.9,248.7h-18.5c-3.4,0-6.2,2.8-6.2,6.2c0,3.4,2.8,6.2,6.2,6.2l18.5,0c3.4,0,6.2-2.8,6.2-6.2
		C319,251.5,316.3,248.7,312.9,248.7L312.9,248.7L312.9,248.7z"/>
	<g>
		<polygon class="st2" points="564.4,334.7 545.4,231.4 510.1,337 504.7,337 468.4,231.4 449.8,334.7 428.9,334.7 459,173.7 
			468.9,173.7 507.6,291.3 542.8,173.7 552.7,173.7 585.4,334.7 		"/>
		<path class="st2" d="M700.7,278h-84.8c0,13.8,3.8,24.4,11.3,31.7c6.7,6.5,15.2,9.7,25.7,9.7c11.9,0,21.9-3.5,29.9-10.6l8.8,15.1
			c-3.2,3.2-8.2,6-14.8,8.4c-8.4,3.1-17.7,4.7-27.9,4.7c-14.8,0-27.4-5-37.7-15.1c-11.5-11.1-17.3-26-17.3-44.7
			c0-19.4,5.9-35.1,17.7-46.8c10.5-10.5,23-15.7,37.5-15.7c16.8,0,29.9,4.7,39.5,14.2c9.2,9.1,13.8,21.2,13.8,36.3
			C702.3,269.8,701.8,274.1,700.7,278L700.7,278z M650,232.3c-9.3,0-17.2,3-23.5,9.1c-6,5.8-9.4,12.9-10.2,21.5h65.3
			c0-8.5-2.6-15.6-7.9-21.3C667.9,235.4,660,232.3,650,232.3L650,232.3z"/>
		<path class="st2" d="M799,334.7V326c-7.2,7.1-17.8,10.7-31.7,10.7c-14.7,0-26.7-5.3-35.9-15.8c-9.2-10.5-13.7-24.6-13.7-42.2
			c0-17.7,5.3-32.8,15.8-45.3c10.5-12.5,23.2-18.7,37.7-18.7c12.2,0,21.4,2.9,27.7,8.6v-54.5H820v166H799L799,334.7z M799,244.1
			c-5.3-7.9-12.5-11.9-21.7-11.9c-11.2,0-20.3,4.2-27.2,12.5c-6.9,8.3-10.4,19-10.4,31.9c0,28.3,12.9,42.5,38.7,42.5
			c3.3,0,7.2-1.1,11.9-3.1c4.6-2.1,7.5-4.3,8.7-6.7V244.1L799,244.1z"/>
		<path class="st2" d="M871.2,172.4c3.6,0,6.6,1.3,9.2,3.8c2.5,2.6,3.8,5.6,3.8,9.1c0,3.6-1.3,6.7-3.8,9.2c-2.6,2.5-5.6,3.8-9.2,3.8
			c-3.5,0-6.6-1.3-9.1-3.8c-2.5-2.6-3.8-5.6-3.8-9.2c0-3.6,1.2-6.6,3.8-9.1C864.5,173.6,867.6,172.4,871.2,172.4L871.2,172.4z
			 M859.6,334.7V234.5h-16.2v-17.6h37.2v117.8H859.6L859.6,334.7z"/>
		<path class="st2" d="M1027.2,184.7l-9.1,18.1c-11.1-8.2-21.9-12.3-32.5-12.3c-16.9,0-30.1,5.9-39.9,17.8
			c-9.7,11.9-14.6,27.6-14.6,47.2c0,18.6,4.8,33.6,14.3,45c9.5,11.4,22.5,17,39,17c11.7,0,21.2-3.5,28.4-10.5v-37.6h-22.3v-18.7
			h44.4v70.1c-5.9,5-14,9-24.5,12c-10.5,3-20.7,4.6-30.6,4.6c-22.2,0-39.7-7.5-52.6-22.6c-12.9-15.1-19.3-35.1-19.3-60.1
			c0-24.9,7.1-45.1,21.2-60.6c14.1-15.5,33.2-23.3,57.2-23.3C1002.9,170.8,1016.6,175.4,1027.2,184.7L1027.2,184.7z"/>
		<path class="st2" d="M1165.4,278h-84.8c0,13.8,3.8,24.4,11.3,31.7c6.7,6.5,15.2,9.7,25.7,9.7c11.9,0,21.9-3.5,29.9-10.6l8.8,15.1
			c-3.2,3.2-8.2,6-14.8,8.4c-8.4,3.1-17.7,4.7-27.9,4.7c-14.8,0-27.4-5-37.7-15.1c-11.5-11.1-17.3-26-17.3-44.7
			c0-19.4,5.9-35.1,17.7-46.8c10.5-10.5,23-15.7,37.5-15.7c16.8,0,29.9,4.7,39.5,14.2c9.2,9.1,13.8,21.2,13.8,36.3
			C1167.1,269.8,1166.5,274.1,1165.4,278L1165.4,278z M1114.8,232.3c-9.3,0-17.2,3-23.5,9.1c-6,5.8-9.4,12.9-10.2,21.5h65.3
			c0-8.5-2.6-15.6-7.9-21.3C1132.6,235.4,1124.8,232.3,1114.8,232.3L1114.8,232.3z"/>
		<path class="st2" d="M1261.5,334.7v-68.6c0-12.5-1.9-21.3-5.7-26.3c-3.8-5-10.1-7.5-19-7.5c-4.8,0-9.8,1.4-15,4.3
			c-5.2,2.9-9.2,6.4-12,10.6v87.6H1189V216.9h14.3l6.6,15.2c6.9-11.6,18.2-17.4,33.8-17.4c25.8,0,38.7,15.7,38.7,47.1v72.9H1261.5
			L1261.5,334.7z"/>
		<path class="st2" d="M1401.7,226.4l-10.4,14.6c-2.1-2.1-5.9-4.1-11.4-6c-5.4-1.9-10.8-2.8-16-2.8c-11.4,0-20.6,4-27.3,12
			c-6.7,8-10.1,18.9-10.1,32.8c0,13.8,3.4,24.3,10.2,31.6c6.8,7.2,16.3,10.8,28.4,10.8c9.4,0,18.8-3.6,28.4-10.8l8.3,17.6
			c-11.2,7.2-25.1,10.8-41.7,10.8c-16.1,0-29.3-5.4-39.9-16.2c-10.5-10.8-15.7-25.4-15.7-43.8c0-18.8,5.5-33.9,16.4-45.2
			c11-11.4,26-17.1,45-17.1c6.2,0,12.8,1.3,20,3.8C1393,221.1,1398.2,223.7,1401.7,226.4L1401.7,226.4z"/>
		<path class="st2" d="M1522.8,278h-84.8c0,13.8,3.8,24.4,11.3,31.7c6.7,6.5,15.2,9.7,25.7,9.7c11.9,0,21.9-3.5,29.9-10.6l8.8,15.1
			c-3.2,3.2-8.2,6-14.8,8.4c-8.4,3.1-17.7,4.7-27.9,4.7c-14.8,0-27.4-5-37.7-15.1c-11.5-11.1-17.3-26-17.3-44.7
			c0-19.4,5.9-35.1,17.7-46.8c10.5-10.5,23-15.7,37.5-15.7c16.8,0,29.9,4.7,39.5,14.2c9.2,9.1,13.8,21.2,13.8,36.3
			C1524.4,269.8,1523.9,274.1,1522.8,278L1522.8,278z M1472.1,232.3c-9.3,0-17.2,3-23.5,9.1c-6,5.8-9.4,12.9-10.2,21.5h65.3
			c0-8.5-2.6-15.6-7.9-21.3C1490,235.4,1482.1,232.3,1472.1,232.3L1472.1,232.3z"/>
		<g>
			<path class="st2" d="M1559,297.5V293h28.1v4.5h-11.3v38.2h-5.6v-38.2H1559z"/>
			<path class="st2" d="M1638.1,293v42.7h-5.7v-31.1l-14.3,31.1h-3.6l-14.3-31.1v31.1h-5.6V293h5.7l16.1,35l16-35H1638.1z"/>
		</g>
	</g>
	<g>
		<path class="st2" d="M1902.1,148.1v7.3h-28v23.9h24.9v7.2h-24.9V211h28v7.3H1865v-70.2H1902.1z"/>
		<path class="st2" d="M1925.3,162.7v9c3.8-6.6,9.8-9.9,18.1-9.9c6.1,0,11.3,2,15.4,6.1c4.1,4.1,6.2,9.9,6.2,17.5v32.9h-9.1v-31.4
			c0-5.6-1.4-9.9-4.1-12.8c-2.7-2.9-6.4-4.4-11.2-4.4c-4.8,0-8.5,1.5-11.2,4.4c-2.7,2.9-4.1,7.2-4.1,12.8v31.4h-9.2v-55.6H1925.3z"
			/>
		<path class="st2" d="M1983.7,211c-5.1-5.4-7.6-12.4-7.6-20.9c0-8.5,2.5-15.3,7.5-20.6c5-5.2,11.4-7.9,19-7.9
			c4.7,0,8.9,1.1,12.4,3.3c3.5,2.2,6.2,5.1,8.1,8.7v-11.1h9.3v55.6h-9.3v-11.3c-1.8,3.6-4.5,6.6-8.1,8.9c-3.5,2.3-7.7,3.4-12.4,3.4
			C1995.1,219.2,1988.8,216.5,1983.7,211z M2017.6,205.6c3.7-3.8,5.5-8.8,5.5-15.1c0-6.3-1.8-11.3-5.5-15.1
			c-3.7-3.8-8.1-5.7-13.3-5.7s-9.6,1.8-13.3,5.5c-3.7,3.6-5.5,8.6-5.5,14.9c0,6.3,1.9,11.4,5.6,15.3c3.7,3.9,8.1,5.9,13.3,5.9
			C2009.5,211.3,2013.9,209.4,2017.6,205.6z"/>
		<path class="st2" d="M2077.4,161.8c7.6,0,14,2.6,19,7.9c5,5.2,7.5,12.1,7.5,20.6c0,8.5-2.5,15.4-7.6,20.9
			c-5.1,5.4-11.4,8.2-18.9,8.2c-4.7,0-8.9-1.1-12.4-3.4c-3.5-2.3-6.3-5.2-8.2-8.9v11.3h-9.2v-75h9.2v30.5c1.9-3.6,4.6-6.5,8.2-8.7
			C2068.6,162.9,2072.7,161.8,2077.4,161.8z M2075.6,211.3c5.2,0,9.6-1.9,13.3-5.8c3.7-3.9,5.5-9,5.5-15.3c0-6.3-1.8-11.3-5.5-14.9
			c-3.7-3.6-8.1-5.5-13.3-5.5c-5.2,0-9.6,1.9-13.3,5.7c-3.7,3.8-5.5,8.8-5.5,15c0,6.2,1.8,11.3,5.5,15.1
			C2066.1,209.4,2070.5,211.3,2075.6,211.3z"/>
		<path class="st2" d="M2115.5,218.3v-75h9.2v75H2115.5z"/>
		<path class="st2" d="M2149,151.9c-1.2,1.2-2.7,1.8-4.5,1.8c-1.8,0-3.2-0.6-4.4-1.8c-1.2-1.2-1.8-2.7-1.8-4.5
			c0-1.8,0.6-3.2,1.8-4.5c1.2-1.2,2.7-1.8,4.4-1.8c1.7,0,3.2,0.6,4.4,1.8c1.2,1.2,1.8,2.7,1.8,4.5
			C2150.9,149.2,2150.3,150.7,2149,151.9z M2139.9,218.3v-55.6h9.2v55.6H2139.9z"/>
		<path class="st2" d="M2173.6,162.7v9c3.8-6.6,9.8-9.9,18.1-9.9c6.1,0,11.3,2,15.4,6.1c4.1,4.1,6.2,9.9,6.2,17.5v32.9h-9.1v-31.4
			c0-5.6-1.4-9.9-4.1-12.8c-2.7-2.9-6.4-4.4-11.2-4.4c-4.8,0-8.5,1.5-11.2,4.4c-2.7,2.9-4.1,7.2-4.1,12.8v31.4h-9.2v-55.6H2173.6z"
			/>
		<path class="st2" d="M2231.9,211c-5.1-5.4-7.6-12.4-7.6-20.9c0-8.5,2.5-15.3,7.5-20.6c5-5.2,11.4-7.9,19-7.9
			c4.7,0,8.9,1.1,12.4,3.3c3.5,2.2,6.2,5.1,8.1,8.7v-11.1h9.3v57c0,7.6-2.5,13.9-7.4,18.7c-4.9,4.8-11.2,7.2-18.7,7.2
			c-7.6,0-13.8-1.8-18.8-5.3c-5-3.5-7.8-8.1-8.5-13.8h9c0.9,3.2,2.9,5.8,6.2,7.9c3.2,2.1,7.3,3.1,12.1,3.1c4.8,0,8.8-1.6,12-4.7
			c3.2-3.1,4.8-7.5,4.8-13.2v-12.8c-1.8,3.6-4.5,6.6-8.1,8.9c-3.5,2.3-7.7,3.4-12.4,3.4C2243.3,219.2,2237,216.5,2231.9,211z
			 M2265.8,205.6c3.7-3.8,5.5-8.8,5.5-15.1c0-6.3-1.8-11.3-5.5-15.1c-3.7-3.8-8.1-5.7-13.3-5.7c-5.2,0-9.6,1.8-13.3,5.5
			c-3.7,3.6-5.5,8.6-5.5,14.9c0,6.3,1.9,11.4,5.6,15.3c3.7,3.9,8.1,5.9,13.3,5.9C2257.7,211.3,2262.1,209.4,2265.8,205.6z"/>
		<path class="st2" d="M2326.3,148.1h25.1c7.2,0,12.7,1.7,16.6,5.2c3.9,3.5,5.9,8,5.9,13.4c0,7.8-4.5,13-13.5,15.5
			c4.5,0.7,8.2,2.8,10.9,6.1c2.8,3.3,4.2,7.1,4.2,11.4c0,5.3-2.1,9.8-6.2,13.3c-4.2,3.5-9.7,5.3-16.7,5.3h-26.3V148.1z
			 M2335.5,155.5v23.1h15.5c4.3,0,7.6-1,10-3.1c2.4-2.1,3.6-4.9,3.6-8.4c0-3.5-1.2-6.4-3.6-8.5c-2.4-2.1-5.7-3.1-10-3.1H2335.5z
			 M2335.5,211h16.6c4.5,0,8-1.1,10.5-3.3c2.5-2.2,3.8-5.3,3.8-9.2c0-3.9-1.4-6.9-4.1-9.2c-2.7-2.2-6.4-3.3-10.9-3.3h-15.9V211z"/>
		<path class="st2" d="M2411.6,219.2c-8,0-14.5-2.6-19.5-7.9c-5-5.3-7.5-12.2-7.5-20.9s2.5-15.6,7.6-20.8c5.1-5.2,11.6-7.9,19.7-7.9
			c8.1,0,14.6,2.5,19.5,7.4c4.9,5,7.3,11.3,7.3,19c0,2-0.1,3.8-0.4,5.5H2394c0.3,5.5,2,9.9,5.2,13.1c3.2,3.2,7.3,4.8,12.3,4.8
			c3.8,0,7-0.8,9.6-2.5c2.6-1.7,4.5-3.9,5.7-6.7h9.9c-1.8,4.9-4.8,8.9-9.1,12.1C2423.4,217.6,2418,219.2,2411.6,219.2z M2424,174.2
			c-3.3-3.2-7.4-4.8-12.3-4.8c-4.9,0-9,1.6-12.2,4.7c-3.2,3.1-5,7.4-5.4,12.9h35C2429,181.6,2427.3,177.4,2424,174.2z"/>
		<path class="st2" d="M2468.4,210.8h7.6v7.5h-9.3c-9.7,0-14.5-4.8-14.5-14.3v-33.8h-7.2v-7.5h7.2v-13.8h9.3v13.8h14.4v7.5h-14.4
			V204c0,2.5,0.5,4.3,1.5,5.3C2464,210.3,2465.8,210.8,2468.4,210.8z"/>
		<path class="st2" d="M2504.4,210.8h7.6v7.5h-9.3c-9.7,0-14.5-4.8-14.5-14.3v-33.8h-7.2v-7.5h7.2v-13.8h9.3v13.8h14.4v7.5h-14.4
			V204c0,2.5,0.5,4.3,1.5,5.3C2500,210.3,2501.8,210.8,2504.4,210.8z"/>
		<path class="st2" d="M2545.4,219.2c-8,0-14.5-2.6-19.5-7.9c-5-5.3-7.5-12.2-7.5-20.9s2.5-15.6,7.6-20.8c5.1-5.2,11.6-7.9,19.7-7.9
			c8.1,0,14.6,2.5,19.5,7.4c4.9,5,7.3,11.3,7.3,19c0,2-0.1,3.8-0.4,5.5h-44.3c0.3,5.5,2,9.9,5.2,13.1c3.2,3.2,7.3,4.8,12.3,4.8
			c3.8,0,7-0.8,9.6-2.5c2.6-1.7,4.5-3.9,5.7-6.7h9.9c-1.8,4.9-4.8,8.9-9.1,12.1C2557.3,217.6,2551.9,219.2,2545.4,219.2z
			 M2557.9,174.2c-3.3-3.2-7.4-4.8-12.3-4.8c-4.9,0-9,1.6-12.2,4.7c-3.2,3.1-5,7.4-5.4,12.9h35
			C2562.9,181.6,2561.2,177.4,2557.9,174.2z"/>
		<path class="st2" d="M2593.2,162.7v9.4c3.3-6.9,8.9-10.3,16.9-10.3v9.6h-2.4c-4.7,0-8.3,1.2-10.8,3.7c-2.5,2.5-3.7,6.7-3.7,12.8
			v30.4h-9.2v-55.6H2593.2z"/>
		<path class="st2" d="M1907.4,281.1h9.3v70.2h-9.3v-31.7H1872v31.7h-9.2v-70.2h9.2v31.2h35.4V281.1z"/>
		<path class="st2" d="M1955.2,352.2c-8,0-14.5-2.6-19.5-7.9c-5-5.3-7.5-12.2-7.5-20.9s2.5-15.6,7.6-20.8c5.1-5.2,11.6-7.9,19.7-7.9
			c8.1,0,14.6,2.5,19.5,7.4c4.9,5,7.3,11.3,7.3,19c0,2-0.1,3.8-0.4,5.5h-44.3c0.3,5.5,2,9.9,5.2,13.1c3.2,3.2,7.3,4.8,12.3,4.8
			c3.8,0,7-0.8,9.6-2.5c2.6-1.7,4.5-3.9,5.7-6.7h9.9c-1.8,4.9-4.8,8.9-9.1,12.1C1967,350.6,1961.7,352.2,1955.2,352.2z
			 M1967.6,307.2c-3.3-3.2-7.4-4.8-12.3-4.8c-4.9,0-9,1.6-12.2,4.7c-3.2,3.1-5,7.4-5.4,12.9h35
			C1972.6,314.6,1970.9,310.4,1967.6,307.2z"/>
		<path class="st2" d="M1997.7,344c-5.1-5.4-7.6-12.4-7.6-20.9c0-8.5,2.5-15.3,7.5-20.6c5-5.2,11.4-7.9,19-7.9
			c4.7,0,8.9,1.1,12.4,3.3c3.5,2.2,6.2,5.1,8.1,8.7v-11.1h9.3v55.6h-9.3v-11.3c-1.8,3.6-4.5,6.6-8.1,8.9c-3.5,2.3-7.7,3.4-12.4,3.4
			C2009.1,352.2,2002.8,349.5,1997.7,344z M2031.6,338.6c3.7-3.8,5.5-8.8,5.5-15.1c0-6.3-1.8-11.3-5.5-15.1
			c-3.7-3.8-8.1-5.7-13.3-5.7s-9.6,1.8-13.3,5.5c-3.7,3.6-5.5,8.6-5.5,14.9c0,6.3,1.9,11.4,5.6,15.3c3.7,3.9,8.1,5.9,13.3,5.9
			C2023.5,344.3,2027.9,342.4,2031.6,338.6z"/>
		<path class="st2" d="M2061.7,351.3v-75h9.2v75H2061.7z"/>
		<path class="st2" d="M2104.3,343.8h7.6v7.5h-9.3c-9.7,0-14.5-4.8-14.5-14.3v-33.8h-7.2v-7.5h7.2v-13.8h9.3v13.8h14.4v7.5h-14.4
			V337c0,2.5,0.5,4.3,1.5,5.3C2100,343.3,2101.7,343.8,2104.3,343.8z"/>
		<path class="st2" d="M2131.3,276.3v28.4c3.8-6.6,9.8-9.9,18.1-9.9c6.1,0,11.3,2,15.4,6.1c4.1,4.1,6.2,9.9,6.2,17.5v32.9h-9.1
			v-31.4c0-5.6-1.4-9.9-4.1-12.8c-2.7-2.9-6.4-4.4-11.2-4.4c-4.8,0-8.5,1.5-11.2,4.4c-2.7,2.9-4.1,7.2-4.1,12.8v31.4h-9.2v-75
			H2131.3z"/>
		<path class="st2" d="M2189.5,344.3c-5-5.3-7.5-12.2-7.5-20.8s2.5-15.6,7.5-20.8c5-5.3,11.5-7.9,19.5-7.9c6.7,0,12.1,1.6,16.4,4.7
			c4.2,3.1,7.2,7.5,8.9,13.3h-9.9c-1.1-3.2-2.9-5.8-5.6-7.6c-2.6-1.8-5.9-2.7-9.7-2.7c-5.3,0-9.5,1.8-12.7,5.5
			c-3.2,3.7-4.8,8.9-4.8,15.6c0,6.7,1.6,11.9,4.8,15.6c3.2,3.7,7.4,5.5,12.7,5.5c7.9,0,13-3.4,15.3-10.3h9.9
			c-1.7,5.5-4.7,9.8-9,13.1c-4.3,3.2-9.7,4.9-16.3,4.9C2201,352.2,2194.5,349.6,2189.5,344.3z"/>
		<path class="st2" d="M2250.4,344c-5.1-5.4-7.6-12.4-7.6-20.9c0-8.5,2.5-15.3,7.5-20.6c5-5.2,11.4-7.9,19-7.9
			c4.7,0,8.9,1.1,12.4,3.3c3.5,2.2,6.2,5.1,8.1,8.7v-11.1h9.3v55.6h-9.3v-11.3c-1.8,3.6-4.5,6.6-8.1,8.9c-3.5,2.3-7.7,3.4-12.4,3.4
			C2261.8,352.2,2255.5,349.5,2250.4,344z M2284.3,338.6c3.7-3.8,5.5-8.8,5.5-15.1c0-6.3-1.8-11.3-5.5-15.1
			c-3.7-3.8-8.1-5.7-13.3-5.7c-5.2,0-9.6,1.8-13.3,5.5c-3.7,3.6-5.5,8.6-5.5,14.9c0,6.3,1.9,11.4,5.6,15.3c3.7,3.9,8.1,5.9,13.3,5.9
			C2276.2,344.3,2280.6,342.4,2284.3,338.6z"/>
		<path class="st2" d="M2323.6,295.7v9.4c3.3-6.9,8.9-10.3,16.9-10.3v9.6h-2.4c-4.7,0-8.3,1.2-10.8,3.7c-2.5,2.5-3.7,6.7-3.7,12.8
			v30.4h-9.2v-55.6H2323.6z"/>
		<path class="st2" d="M2374.9,352.2c-8,0-14.5-2.6-19.5-7.9c-5-5.3-7.5-12.2-7.5-20.9s2.5-15.6,7.6-20.8c5.1-5.2,11.6-7.9,19.7-7.9
			c8.1,0,14.6,2.5,19.5,7.4c4.9,5,7.3,11.3,7.3,19c0,2-0.1,3.8-0.4,5.5h-44.3c0.3,5.5,2,9.9,5.2,13.1c3.2,3.2,7.3,4.8,12.3,4.8
			c3.8,0,7-0.8,9.6-2.5c2.6-1.7,4.5-3.9,5.7-6.7h9.9c-1.8,4.9-4.8,8.9-9.1,12.1C2386.8,350.6,2381.4,352.2,2374.9,352.2z
			 M2387.4,307.2c-3.3-3.2-7.4-4.8-12.3-4.8c-4.9,0-9,1.6-12.2,4.7c-3.2,3.1-5,7.4-5.4,12.9h35
			C2392.4,314.6,2390.7,310.4,2387.4,307.2z"/>
		<path class="st2" d="M2466.1,281.1c11.3,0,20.3,3.2,26.8,9.5c6.6,6.3,9.8,15,9.8,25.9c0,10.9-3.3,19.5-9.8,25.6
			c-6.6,6.1-15.5,9.2-26.8,9.2h-22.2v-70.2H2466.1z M2453.1,344.2h13c8.8,0,15.6-2.4,20.3-7.3c4.7-4.9,7-11.7,7-20.4
			c0-8.7-2.3-15.5-7-20.4c-4.7-4.9-11.4-7.3-20.3-7.3h-13V344.2z"/>
		<path class="st2" d="M2537.7,352.2c-8,0-14.5-2.6-19.5-7.9c-5-5.3-7.5-12.2-7.5-20.9s2.5-15.6,7.6-20.8c5.1-5.2,11.6-7.9,19.7-7.9
			c8.1,0,14.6,2.5,19.5,7.4c4.9,5,7.3,11.3,7.3,19c0,2-0.1,3.8-0.4,5.5h-44.3c0.3,5.5,2,9.9,5.2,13.1c3.2,3.2,7.3,4.8,12.3,4.8
			c3.8,0,7-0.8,9.6-2.5c2.6-1.7,4.5-3.9,5.7-6.7h9.9c-1.8,4.9-4.8,8.9-9.1,12.1C2549.6,350.6,2544.2,352.2,2537.7,352.2z
			 M2550.2,307.2c-3.3-3.2-7.4-4.8-12.3-4.8c-4.9,0-9,1.6-12.2,4.7c-3.2,3.1-5,7.4-5.4,12.9h35
			C2555.2,314.6,2553.5,310.4,2550.2,307.2z"/>
		<path class="st2" d="M2580.2,344.3c-5-5.3-7.5-12.2-7.5-20.8s2.5-15.6,7.5-20.8c5-5.3,11.5-7.9,19.5-7.9c6.7,0,12.1,1.6,16.4,4.7
			c4.2,3.1,7.2,7.5,8.9,13.3h-9.9c-1.1-3.2-2.9-5.8-5.6-7.6c-2.6-1.8-5.9-2.7-9.7-2.7c-5.3,0-9.5,1.8-12.7,5.5
			c-3.2,3.7-4.8,8.9-4.8,15.6c0,6.7,1.6,11.9,4.8,15.6c3.2,3.7,7.4,5.5,12.7,5.5c7.9,0,13-3.4,15.3-10.3h9.9
			c-1.7,5.5-4.7,9.8-9,13.1c-4.3,3.2-9.7,4.9-16.3,4.9C2591.7,352.2,2585.2,349.6,2580.2,344.3z"/>
		<path class="st2" d="M2646.3,284.9c-1.2,1.2-2.7,1.8-4.5,1.8s-3.2-0.6-4.4-1.8c-1.2-1.2-1.8-2.7-1.8-4.5c0-1.8,0.6-3.2,1.8-4.5
			c1.2-1.2,2.7-1.8,4.4-1.8s3.2,0.6,4.4,1.8c1.2,1.2,1.8,2.7,1.8,4.5C2648.1,282.2,2647.5,283.7,2646.3,284.9z M2637.1,351.3v-55.6
			h9.2v55.6H2637.1z"/>
		<path class="st2" d="M2659.5,311.4c0-4.7,1.9-8.6,5.8-11.8c3.9-3.2,8.9-4.8,15.1-4.8s11,1.6,14.5,4.7c3.5,3.1,5.4,7.4,5.8,12.9
			h-9.5c-0.1-3.1-1.2-5.6-3.1-7.5c-2-1.9-4.7-2.8-8.2-2.8c-3.5,0-6.2,0.8-8.2,2.5c-2,1.7-3,3.8-3,6.4c0,2.6,1.1,4.6,3.4,6
			c2.3,1.4,5,2.4,8.2,3.1c3.2,0.6,6.4,1.4,9.6,2.2c3.2,0.8,5.9,2.4,8.2,4.8c2.3,2.3,3.4,5.6,3.4,9.9c0,4.3-1.9,7.9-5.8,10.8
			c-3.9,2.9-8.9,4.4-15.1,4.4c-6.2,0-11.2-1.6-14.9-4.7c-3.7-3.1-5.8-7.4-6.1-12.9h9.5c0.1,3.1,1.2,5.6,3.3,7.4
			c2.1,1.9,4.9,2.8,8.5,2.8s6.4-0.8,8.5-2.3c2.1-1.6,3.1-3.5,3.1-5.9c0-2.4-0.8-4.3-2.4-5.7c-1.6-1.4-3.6-2.4-6.1-2.9
			c-2.4-0.5-5.1-1.2-8-1.9c-2.9-0.7-5.5-1.5-8-2.4c-2.4-0.8-4.5-2.3-6.1-4.4C2660.3,317.2,2659.5,314.5,2659.5,311.4z"/>
		<path class="st2" d="M2724,284.9c-1.2,1.2-2.7,1.8-4.5,1.8s-3.2-0.6-4.4-1.8c-1.2-1.2-1.8-2.7-1.8-4.5c0-1.8,0.6-3.2,1.8-4.5
			c1.2-1.2,2.7-1.8,4.4-1.8s3.2,0.6,4.4,1.8c1.2,1.2,1.8,2.7,1.8,4.5C2725.8,282.2,2725.2,283.7,2724,284.9z M2714.8,351.3v-55.6
			h9.2v55.6H2714.8z"/>
		<path class="st2" d="M2743.3,344.3c-5.1-5.3-7.6-12.2-7.6-20.8s2.7-15.5,8-20.8c5.3-5.3,12-8,20.1-8c8,0,14.7,2.7,20.1,8
			c5.3,5.3,8,12.2,8,20.8c0,8.5-2.8,15.5-8.4,20.8c-5.6,5.3-12.4,8-20.4,8C2754.9,352.2,2748.4,349.6,2743.3,344.3z M2763,344.6
			c5.2,0,9.7-1.9,13.5-5.6c3.8-3.7,5.7-8.9,5.7-15.6s-1.8-11.8-5.5-15.5c-3.6-3.7-8.1-5.6-13.3-5.6s-9.6,1.9-13.1,5.6
			c-3.5,3.7-5.3,8.9-5.3,15.6c0,6.7,1.7,11.8,5.1,15.6C2753.5,342.7,2757.8,344.6,2763,344.6z"/>
		<path class="st2" d="M2812.5,295.7v9c3.8-6.6,9.8-9.9,18.1-9.9c6.1,0,11.3,2,15.4,6.1c4.1,4.1,6.2,9.9,6.2,17.5v32.9h-9.1v-31.4
			c0-5.6-1.4-9.9-4.1-12.8c-2.7-2.9-6.4-4.4-11.2-4.4c-4.8,0-8.5,1.5-11.2,4.4c-2.7,2.9-4.1,7.2-4.1,12.8v31.4h-9.2v-55.6H2812.5z"
			/>
		<path class="st2" d="M2864.9,311.4c0-4.7,1.9-8.6,5.8-11.8c3.9-3.2,8.9-4.8,15.1-4.8s11,1.6,14.5,4.7c3.5,3.1,5.4,7.4,5.8,12.9
			h-9.5c-0.1-3.1-1.2-5.6-3.1-7.5c-2-1.9-4.7-2.8-8.2-2.8c-3.5,0-6.2,0.8-8.2,2.5c-2,1.7-3,3.8-3,6.4c0,2.6,1.1,4.6,3.4,6
			c2.3,1.4,5,2.4,8.2,3.1c3.2,0.6,6.4,1.4,9.6,2.2c3.2,0.8,5.9,2.4,8.2,4.8c2.3,2.3,3.4,5.6,3.4,9.9c0,4.3-1.9,7.9-5.8,10.8
			c-3.9,2.9-8.9,4.4-15.1,4.4c-6.2,0-11.2-1.6-14.9-4.7c-3.7-3.1-5.8-7.4-6.1-12.9h9.5c0.1,3.1,1.2,5.6,3.3,7.4
			c2.1,1.9,4.9,2.8,8.5,2.8c3.6,0,6.4-0.8,8.5-2.3c2.1-1.6,3.1-3.5,3.1-5.9c0-2.4-0.8-4.3-2.4-5.7c-1.6-1.4-3.6-2.4-6.1-2.9
			c-2.4-0.5-5.1-1.2-8-1.9c-2.9-0.7-5.5-1.5-8-2.4c-2.4-0.8-4.5-2.3-6.1-4.4C2865.7,317.2,2864.9,314.5,2864.9,311.4z"/>
	</g>
	<line class="st3" x1="1739.5" y1="182.3" x2="1739.5" y2="353.4"/>
</g>
</svg>
